<mxfile host="Electron" agent="Mozilla/5.0 (Windows NT 10.0; Win64; x64) AppleWebKit/537.36 (KHTML, like Gecko) draw.io/27.0.9 Chrome/134.0.6998.205 Electron/35.4.0 Safari/537.36" version="27.0.9">
  <diagram name="페이지-1" id="FGStGqSGCUZD2fI1Fla1">
    <mxGraphModel dx="3780" dy="1700" grid="1" gridSize="10" guides="1" tooltips="1" connect="1" arrows="1" fold="1" page="1" pageScale="1" pageWidth="1654" pageHeight="2336" math="0" shadow="0">
      <root>
        <mxCell id="0" />
        <mxCell id="1" parent="0" />
        <mxCell id="iJqr4c1U61J0EImueqmd-83" value="" style="edgeStyle=orthogonalEdgeStyle;rounded=0;orthogonalLoop=1;jettySize=auto;html=1;" parent="1" source="iJqr4c1U61J0EImueqmd-84" target="iJqr4c1U61J0EImueqmd-87" edge="1">
          <mxGeometry relative="1" as="geometry" />
        </mxCell>
        <mxCell id="iJqr4c1U61J0EImueqmd-84" value="기다리기" style="rounded=1;whiteSpace=wrap;html=1;fillColor=#a0522d;fontColor=#ffffff;strokeColor=#6D1F00;" parent="1" vertex="1">
          <mxGeometry x="390.14" y="60" width="120" height="60" as="geometry" />
        </mxCell>
        <mxCell id="iJqr4c1U61J0EImueqmd-85" style="edgeStyle=orthogonalEdgeStyle;rounded=0;orthogonalLoop=1;jettySize=auto;html=1;entryX=1;entryY=0.5;entryDx=0;entryDy=0;" parent="1" source="iJqr4c1U61J0EImueqmd-87" target="iJqr4c1U61J0EImueqmd-84" edge="1">
          <mxGeometry relative="1" as="geometry">
            <mxPoint x="590.14" y="80" as="targetPoint" />
            <Array as="points">
              <mxPoint x="630.14" y="180" />
              <mxPoint x="630.14" y="90" />
            </Array>
          </mxGeometry>
        </mxCell>
        <mxCell id="iJqr4c1U61J0EImueqmd-124" style="edgeStyle=orthogonalEdgeStyle;rounded=0;orthogonalLoop=1;jettySize=auto;html=1;exitX=0.5;exitY=1;exitDx=0;exitDy=0;entryX=0.5;entryY=0;entryDx=0;entryDy=0;" parent="1" source="iJqr4c1U61J0EImueqmd-87" target="iJqr4c1U61J0EImueqmd-123" edge="1">
          <mxGeometry relative="1" as="geometry" />
        </mxCell>
        <mxCell id="iJqr4c1U61J0EImueqmd-87" value="초기화 버튼을 눌렀는가?" style="rhombus;whiteSpace=wrap;html=1;fillColor=#f5f5f5;strokeColor=#666666;fontColor=#333333;" parent="1" vertex="1">
          <mxGeometry x="355.14" y="140" width="190" height="80" as="geometry" />
        </mxCell>
        <mxCell id="iJqr4c1U61J0EImueqmd-125" style="edgeStyle=orthogonalEdgeStyle;rounded=0;orthogonalLoop=1;jettySize=auto;html=1;entryX=1;entryY=0.5;entryDx=0;entryDy=0;" parent="1" source="iJqr4c1U61J0EImueqmd-119" edge="1">
          <mxGeometry relative="1" as="geometry">
            <mxPoint x="510.1399999999999" y="344.5" as="targetPoint" />
            <Array as="points">
              <mxPoint x="720" y="475" />
              <mxPoint x="720" y="340" />
              <mxPoint x="510" y="340" />
            </Array>
          </mxGeometry>
        </mxCell>
        <mxCell id="neUhBCbhYMwncV7E5mz9-18" value="" style="edgeStyle=orthogonalEdgeStyle;rounded=0;orthogonalLoop=1;jettySize=auto;html=1;" edge="1" parent="1" source="iJqr4c1U61J0EImueqmd-123" target="neUhBCbhYMwncV7E5mz9-17">
          <mxGeometry relative="1" as="geometry" />
        </mxCell>
        <mxCell id="iJqr4c1U61J0EImueqmd-123" value="전체 초기화&lt;br&gt;(변수 초기화)" style="rounded=1;whiteSpace=wrap;html=1;" parent="1" vertex="1">
          <mxGeometry x="391.14" y="240" width="120" height="60" as="geometry" />
        </mxCell>
        <mxCell id="iJqr4c1U61J0EImueqmd-135" value="" style="edgeStyle=orthogonalEdgeStyle;rounded=0;orthogonalLoop=1;jettySize=auto;html=1;" parent="1" source="iJqr4c1U61J0EImueqmd-131" target="iJqr4c1U61J0EImueqmd-134" edge="1">
          <mxGeometry relative="1" as="geometry" />
        </mxCell>
        <mxCell id="iJqr4c1U61J0EImueqmd-131" value="횟수 버튼 눌렀는가?" style="rhombus;whiteSpace=wrap;html=1;fillColor=#f5f5f5;fontColor=#333333;strokeColor=#666666;" parent="1" vertex="1">
          <mxGeometry x="355.14" y="420.44" width="190" height="80" as="geometry" />
        </mxCell>
        <mxCell id="iJqr4c1U61J0EImueqmd-139" style="edgeStyle=orthogonalEdgeStyle;rounded=0;orthogonalLoop=1;jettySize=auto;html=1;exitX=1;exitY=0.5;exitDx=0;exitDy=0;entryX=1;entryY=0.5;entryDx=0;entryDy=0;" parent="1" source="iJqr4c1U61J0EImueqmd-133" target="iJqr4c1U61J0EImueqmd-131" edge="1">
          <mxGeometry relative="1" as="geometry">
            <Array as="points">
              <mxPoint x="690" y="640.44" />
              <mxPoint x="690" y="460.44" />
            </Array>
          </mxGeometry>
        </mxCell>
        <mxCell id="neUhBCbhYMwncV7E5mz9-21" value="" style="edgeStyle=orthogonalEdgeStyle;rounded=0;orthogonalLoop=1;jettySize=auto;html=1;" edge="1" parent="1" source="iJqr4c1U61J0EImueqmd-133" target="neUhBCbhYMwncV7E5mz9-20">
          <mxGeometry relative="1" as="geometry" />
        </mxCell>
        <mxCell id="iJqr4c1U61J0EImueqmd-133" value="상호작용 버튼을 눌렀는가?" style="rhombus;whiteSpace=wrap;html=1;fillColor=#f5f5f5;fontColor=#333333;strokeColor=#666666;" parent="1" vertex="1">
          <mxGeometry x="355.14" y="600.44" width="190" height="80" as="geometry" />
        </mxCell>
        <mxCell id="iJqr4c1U61J0EImueqmd-136" value="" style="edgeStyle=orthogonalEdgeStyle;rounded=0;orthogonalLoop=1;jettySize=auto;html=1;" parent="1" source="iJqr4c1U61J0EImueqmd-134" target="iJqr4c1U61J0EImueqmd-133" edge="1">
          <mxGeometry relative="1" as="geometry" />
        </mxCell>
        <mxCell id="iJqr4c1U61J0EImueqmd-134" value="하루에 배출하는 횟수 ++" style="rounded=1;whiteSpace=wrap;html=1;fillColor=#647687;fontColor=#ffffff;strokeColor=#314354;" parent="1" vertex="1">
          <mxGeometry x="270.14" y="520.44" width="360" height="60" as="geometry" />
        </mxCell>
        <mxCell id="neUhBCbhYMwncV7E5mz9-2" value="" style="edgeStyle=orthogonalEdgeStyle;rounded=0;orthogonalLoop=1;jettySize=auto;html=1;" edge="1" parent="1" source="iJqr4c1U61J0EImueqmd-141" target="iJqr4c1U61J0EImueqmd-172">
          <mxGeometry relative="1" as="geometry" />
        </mxCell>
        <mxCell id="neUhBCbhYMwncV7E5mz9-28" style="edgeStyle=orthogonalEdgeStyle;rounded=0;orthogonalLoop=1;jettySize=auto;html=1;entryX=0;entryY=0.5;entryDx=0;entryDy=0;" edge="1" parent="1" source="iJqr4c1U61J0EImueqmd-141" target="neUhBCbhYMwncV7E5mz9-20">
          <mxGeometry relative="1" as="geometry">
            <mxPoint x="280" y="820" as="targetPoint" />
            <Array as="points">
              <mxPoint x="270" y="1363" />
              <mxPoint x="270" y="750" />
            </Array>
          </mxGeometry>
        </mxCell>
        <mxCell id="iJqr4c1U61J0EImueqmd-141" value="(받은 데이터의 수&amp;nbsp;&amp;nbsp;= 횟수)인가?" style="rhombus;whiteSpace=wrap;html=1;fillColor=#f5f5f5;fontColor=#333333;strokeColor=#666666;" parent="1" vertex="1">
          <mxGeometry x="290.15999999999997" y="1323" width="320" height="80" as="geometry" />
        </mxCell>
        <mxCell id="iJqr4c1U61J0EImueqmd-148" style="edgeStyle=orthogonalEdgeStyle;rounded=0;orthogonalLoop=1;jettySize=auto;html=1;exitX=0.5;exitY=1;exitDx=0;exitDy=0;" parent="1" source="iJqr4c1U61J0EImueqmd-143" target="iJqr4c1U61J0EImueqmd-146" edge="1">
          <mxGeometry relative="1" as="geometry" />
        </mxCell>
        <mxCell id="neUhBCbhYMwncV7E5mz9-23" style="edgeStyle=orthogonalEdgeStyle;rounded=0;orthogonalLoop=1;jettySize=auto;html=1;" edge="1" parent="1" source="iJqr4c1U61J0EImueqmd-143">
          <mxGeometry relative="1" as="geometry">
            <mxPoint x="390" y="750" as="targetPoint" />
            <Array as="points">
              <mxPoint x="300" y="868" />
              <mxPoint x="300" y="750" />
            </Array>
          </mxGeometry>
        </mxCell>
        <mxCell id="iJqr4c1U61J0EImueqmd-143" value="시간 버튼을 눌렀는가?" style="rhombus;whiteSpace=wrap;html=1;fillColor=#f5f5f5;fontColor=#333333;strokeColor=#666666;" parent="1" vertex="1">
          <mxGeometry x="355.29999999999995" y="828" width="190" height="80" as="geometry" />
        </mxCell>
        <mxCell id="iJqr4c1U61J0EImueqmd-161" style="edgeStyle=orthogonalEdgeStyle;rounded=0;orthogonalLoop=1;jettySize=auto;html=1;exitX=1;exitY=0.5;exitDx=0;exitDy=0;entryX=1;entryY=0.5;entryDx=0;entryDy=0;" parent="1" source="iJqr4c1U61J0EImueqmd-144" target="iJqr4c1U61J0EImueqmd-143" edge="1">
          <mxGeometry relative="1" as="geometry">
            <mxPoint x="600.16" y="918" as="targetPoint" />
            <Array as="points">
              <mxPoint x="610.02" y="1162.56" />
              <mxPoint x="610.02" y="867.56" />
            </Array>
          </mxGeometry>
        </mxCell>
        <mxCell id="neUhBCbhYMwncV7E5mz9-16" value="" style="edgeStyle=orthogonalEdgeStyle;rounded=0;orthogonalLoop=1;jettySize=auto;html=1;" edge="1" parent="1" source="iJqr4c1U61J0EImueqmd-144" target="iJqr4c1U61J0EImueqmd-145">
          <mxGeometry relative="1" as="geometry" />
        </mxCell>
        <mxCell id="iJqr4c1U61J0EImueqmd-144" value="상호작용&amp;nbsp; 버튼을 눌렀는가?" style="rhombus;whiteSpace=wrap;html=1;fillColor=#f5f5f5;fontColor=#333333;strokeColor=#666666;" parent="1" vertex="1">
          <mxGeometry x="355.29999999999995" y="1122.56" width="190" height="80" as="geometry" />
        </mxCell>
        <mxCell id="iJqr4c1U61J0EImueqmd-152" value="" style="edgeStyle=orthogonalEdgeStyle;rounded=0;orthogonalLoop=1;jettySize=auto;html=1;" parent="1" source="iJqr4c1U61J0EImueqmd-145" target="iJqr4c1U61J0EImueqmd-141" edge="1">
          <mxGeometry relative="1" as="geometry" />
        </mxCell>
        <mxCell id="iJqr4c1U61J0EImueqmd-145" value="시간 데이터 추가&lt;br&gt;데이터리스트에 (push)" style="rounded=1;whiteSpace=wrap;html=1;fillColor=#647687;fontColor=#ffffff;strokeColor=#314354;" parent="1" vertex="1">
          <mxGeometry x="360.88" y="1233.88" width="180" height="60" as="geometry" />
        </mxCell>
        <mxCell id="neUhBCbhYMwncV7E5mz9-13" value="" style="edgeStyle=orthogonalEdgeStyle;rounded=0;orthogonalLoop=1;jettySize=auto;html=1;" edge="1" parent="1" source="iJqr4c1U61J0EImueqmd-146" target="neUhBCbhYMwncV7E5mz9-12">
          <mxGeometry relative="1" as="geometry" />
        </mxCell>
        <mxCell id="iJqr4c1U61J0EImueqmd-146" value="시간 데이터에&lt;br&gt;&amp;nbsp;1시간 추가&lt;br&gt;(가상의 변수)" style="rounded=1;whiteSpace=wrap;html=1;" parent="1" vertex="1">
          <mxGeometry x="390.29999999999995" y="928" width="120" height="60" as="geometry" />
        </mxCell>
        <mxCell id="iJqr4c1U61J0EImueqmd-172" value="세팅 완료" style="rounded=1;whiteSpace=wrap;html=1;fillColor=#647687;fontColor=#ffffff;strokeColor=#314354;" parent="1" vertex="1">
          <mxGeometry x="390.88" y="1448" width="120" height="60" as="geometry" />
        </mxCell>
        <mxCell id="iJqr4c1U61J0EImueqmd-181" style="edgeStyle=orthogonalEdgeStyle;rounded=0;orthogonalLoop=1;jettySize=auto;html=1;entryX=0.5;entryY=0;entryDx=0;entryDy=0;" parent="1" source="iJqr4c1U61J0EImueqmd-174" target="iJqr4c1U61J0EImueqmd-175" edge="1">
          <mxGeometry relative="1" as="geometry" />
        </mxCell>
        <mxCell id="iJqr4c1U61J0EImueqmd-174" value="세팅 완료" style="rounded=1;whiteSpace=wrap;html=1;fillColor=#647687;fontColor=#ffffff;strokeColor=#314354;" parent="1" vertex="1">
          <mxGeometry x="1190" y="60" width="120" height="60" as="geometry" />
        </mxCell>
        <mxCell id="iJqr4c1U61J0EImueqmd-183" style="edgeStyle=orthogonalEdgeStyle;rounded=0;orthogonalLoop=1;jettySize=auto;html=1;entryX=0.5;entryY=0;entryDx=0;entryDy=0;" parent="1" source="iJqr4c1U61J0EImueqmd-175" target="iJqr4c1U61J0EImueqmd-176" edge="1">
          <mxGeometry relative="1" as="geometry" />
        </mxCell>
        <mxCell id="iJqr4c1U61J0EImueqmd-175" value="기다리기" style="rounded=1;whiteSpace=wrap;html=1;fillColor=#a0522d;fontColor=#ffffff;strokeColor=#6D1F00;" parent="1" vertex="1">
          <mxGeometry x="1190" y="150" width="120" height="50" as="geometry" />
        </mxCell>
        <mxCell id="iJqr4c1U61J0EImueqmd-179" style="edgeStyle=orthogonalEdgeStyle;rounded=0;orthogonalLoop=1;jettySize=auto;html=1;exitX=1;exitY=0.5;exitDx=0;exitDy=0;entryX=1;entryY=0.5;entryDx=0;entryDy=0;" parent="1" source="iJqr4c1U61J0EImueqmd-176" target="iJqr4c1U61J0EImueqmd-175" edge="1">
          <mxGeometry relative="1" as="geometry" />
        </mxCell>
        <mxCell id="iJqr4c1U61J0EImueqmd-185" value="" style="edgeStyle=orthogonalEdgeStyle;rounded=0;orthogonalLoop=1;jettySize=auto;html=1;" parent="1" source="iJqr4c1U61J0EImueqmd-176" target="iJqr4c1U61J0EImueqmd-184" edge="1">
          <mxGeometry relative="1" as="geometry" />
        </mxCell>
        <mxCell id="iJqr4c1U61J0EImueqmd-176" value="(알람) 시간 =&amp;nbsp;&lt;div&gt;(N번째) 현재 시간&lt;br&gt;인가?&lt;/div&gt;" style="rhombus;whiteSpace=wrap;html=1;fillColor=#f5f5f5;fontColor=#333333;strokeColor=#666666;" parent="1" vertex="1">
          <mxGeometry x="1155" y="234.5" width="190" height="80" as="geometry" />
        </mxCell>
        <mxCell id="iJqr4c1U61J0EImueqmd-201" value="" style="edgeStyle=orthogonalEdgeStyle;rounded=0;orthogonalLoop=1;jettySize=auto;html=1;" parent="1" source="iJqr4c1U61J0EImueqmd-184" target="iJqr4c1U61J0EImueqmd-192" edge="1">
          <mxGeometry relative="1" as="geometry" />
        </mxCell>
        <mxCell id="iJqr4c1U61J0EImueqmd-184" value="부저 울리기&lt;div&gt;(LCD) 시간 표시&lt;/div&gt;" style="rounded=1;whiteSpace=wrap;html=1;fillColor=#e3c800;fontColor=#000000;strokeColor=#B09500;" parent="1" vertex="1">
          <mxGeometry x="1130" y="340" width="240" height="60" as="geometry" />
        </mxCell>
        <mxCell id="iJqr4c1U61J0EImueqmd-187" style="edgeStyle=orthogonalEdgeStyle;rounded=0;orthogonalLoop=1;jettySize=auto;html=1;entryX=1;entryY=0.5;entryDx=0;entryDy=0;" parent="1" source="iJqr4c1U61J0EImueqmd-188" target="iJqr4c1U61J0EImueqmd-192" edge="1">
          <mxGeometry relative="1" as="geometry">
            <Array as="points">
              <mxPoint x="1430" y="560" />
              <mxPoint x="1430" y="450" />
            </Array>
          </mxGeometry>
        </mxCell>
        <mxCell id="neUhBCbhYMwncV7E5mz9-26" value="" style="edgeStyle=orthogonalEdgeStyle;rounded=0;orthogonalLoop=1;jettySize=auto;html=1;" edge="1" parent="1" source="iJqr4c1U61J0EImueqmd-188" target="neUhBCbhYMwncV7E5mz9-25">
          <mxGeometry relative="1" as="geometry" />
        </mxCell>
        <mxCell id="iJqr4c1U61J0EImueqmd-188" value="상호작용 버튼을 눌렀는가?" style="rhombus;whiteSpace=wrap;html=1;fillColor=#f5f5f5;fontColor=#333333;strokeColor=#666666;" parent="1" vertex="1">
          <mxGeometry x="1155" y="520" width="190" height="80" as="geometry" />
        </mxCell>
        <mxCell id="iJqr4c1U61J0EImueqmd-189" value="" style="edgeStyle=orthogonalEdgeStyle;rounded=0;orthogonalLoop=1;jettySize=auto;html=1;" parent="1" source="iJqr4c1U61J0EImueqmd-190" target="iJqr4c1U61J0EImueqmd-196" edge="1">
          <mxGeometry relative="1" as="geometry" />
        </mxCell>
        <mxCell id="iJqr4c1U61J0EImueqmd-190" value="&lt;div&gt;컨베이너 벨프 (N)번째&lt;br&gt;(LED) 출력&lt;/div&gt;" style="rounded=1;whiteSpace=wrap;html=1;fillColor=#e3c800;fontColor=#000000;strokeColor=#B09500;" parent="1" vertex="1">
          <mxGeometry x="1190" y="695" width="120" height="60" as="geometry" />
        </mxCell>
        <mxCell id="iJqr4c1U61J0EImueqmd-191" value="" style="edgeStyle=orthogonalEdgeStyle;rounded=0;orthogonalLoop=1;jettySize=auto;html=1;" parent="1" source="iJqr4c1U61J0EImueqmd-192" target="iJqr4c1U61J0EImueqmd-188" edge="1">
          <mxGeometry relative="1" as="geometry" />
        </mxCell>
        <mxCell id="iJqr4c1U61J0EImueqmd-192" value="기다리기" style="rounded=1;whiteSpace=wrap;html=1;fillColor=#a0522d;fontColor=#ffffff;strokeColor=#6D1F00;" parent="1" vertex="1">
          <mxGeometry x="1190" y="420" width="120" height="60" as="geometry" />
        </mxCell>
        <mxCell id="iJqr4c1U61J0EImueqmd-203" style="edgeStyle=orthogonalEdgeStyle;rounded=0;orthogonalLoop=1;jettySize=auto;html=1;" parent="1" source="iJqr4c1U61J0EImueqmd-194" target="iJqr4c1U61J0EImueqmd-202" edge="1">
          <mxGeometry relative="1" as="geometry" />
        </mxCell>
        <mxCell id="iJqr4c1U61J0EImueqmd-194" value="&lt;div&gt;10분안에&lt;/div&gt;약을 가져갔는가?&lt;div&gt;(무게 센서)&lt;/div&gt;" style="rhombus;whiteSpace=wrap;html=1;fillColor=#f5f5f5;fontColor=#333333;strokeColor=#666666;" parent="1" vertex="1">
          <mxGeometry x="1155" y="895" width="190" height="80" as="geometry" />
        </mxCell>
        <mxCell id="iJqr4c1U61J0EImueqmd-195" value="" style="edgeStyle=orthogonalEdgeStyle;rounded=0;orthogonalLoop=1;jettySize=auto;html=1;" parent="1" source="iJqr4c1U61J0EImueqmd-196" target="iJqr4c1U61J0EImueqmd-194" edge="1">
          <mxGeometry relative="1" as="geometry" />
        </mxCell>
        <mxCell id="iJqr4c1U61J0EImueqmd-196" value="기다리기" style="rounded=1;whiteSpace=wrap;html=1;fillColor=#a0522d;fontColor=#ffffff;strokeColor=#6D1F00;" parent="1" vertex="1">
          <mxGeometry x="1190" y="820" width="120" height="60" as="geometry" />
        </mxCell>
        <mxCell id="iJqr4c1U61J0EImueqmd-197" value="" style="edgeStyle=orthogonalEdgeStyle;rounded=0;orthogonalLoop=1;jettySize=auto;html=1;exitX=0;exitY=0.5;exitDx=0;exitDy=0;" parent="1" source="iJqr4c1U61J0EImueqmd-198" target="iJqr4c1U61J0EImueqmd-196" edge="1">
          <mxGeometry relative="1" as="geometry">
            <mxPoint x="1370" y="824.9999999999998" as="sourcePoint" />
          </mxGeometry>
        </mxCell>
        <mxCell id="neUhBCbhYMwncV7E5mz9-27" style="edgeStyle=orthogonalEdgeStyle;rounded=0;orthogonalLoop=1;jettySize=auto;html=1;entryX=1;entryY=0.5;entryDx=0;entryDy=0;" edge="1" parent="1" source="iJqr4c1U61J0EImueqmd-198" target="iJqr4c1U61J0EImueqmd-194">
          <mxGeometry relative="1" as="geometry">
            <mxPoint x="1410" y="930" as="targetPoint" />
            <Array as="points">
              <mxPoint x="1440" y="935" />
            </Array>
          </mxGeometry>
        </mxCell>
        <mxCell id="iJqr4c1U61J0EImueqmd-198" value="보호자에게&lt;br&gt;이메일보내기&lt;br&gt;(기다리기 시간 초기화)&lt;br&gt;(WIFE) 모듈 이용" style="rounded=1;whiteSpace=wrap;html=1;fillColor=#76608a;strokeColor=#432D57;fontColor=#ffffff;" parent="1" vertex="1">
          <mxGeometry x="1370" y="820" width="120" height="60" as="geometry" />
        </mxCell>
        <mxCell id="iJqr4c1U61J0EImueqmd-204" style="edgeStyle=orthogonalEdgeStyle;rounded=0;orthogonalLoop=1;jettySize=auto;html=1;exitX=0;exitY=0.5;exitDx=0;exitDy=0;entryX=0;entryY=0.5;entryDx=0;entryDy=0;" parent="1" source="iJqr4c1U61J0EImueqmd-202" target="iJqr4c1U61J0EImueqmd-175" edge="1">
          <mxGeometry relative="1" as="geometry">
            <Array as="points">
              <mxPoint x="1080" y="1055" />
              <mxPoint x="1080" y="175" />
            </Array>
          </mxGeometry>
        </mxCell>
        <mxCell id="neUhBCbhYMwncV7E5mz9-4" value="" style="edgeStyle=orthogonalEdgeStyle;rounded=0;orthogonalLoop=1;jettySize=auto;html=1;" edge="1" parent="1" source="iJqr4c1U61J0EImueqmd-202" target="neUhBCbhYMwncV7E5mz9-3">
          <mxGeometry relative="1" as="geometry" />
        </mxCell>
        <mxCell id="iJqr4c1U61J0EImueqmd-202" value="약이 고갈되었는가?" style="rhombus;whiteSpace=wrap;html=1;fillColor=#f5f5f5;fontColor=#333333;strokeColor=#666666;" parent="1" vertex="1">
          <mxGeometry x="1155" y="1015" width="190" height="80" as="geometry" />
        </mxCell>
        <mxCell id="iJqr4c1U61J0EImueqmd-209" value="" style="whiteSpace=wrap;html=1;aspect=fixed;" parent="1" vertex="1">
          <mxGeometry x="885" y="1323" width="460" height="460" as="geometry" />
        </mxCell>
        <mxCell id="iJqr4c1U61J0EImueqmd-213" value="" style="rounded=0;whiteSpace=wrap;html=1;fillColor=#647687;strokeColor=#314354;fontColor=#ffffff;" parent="1" vertex="1">
          <mxGeometry x="885" y="1363" width="340" height="20" as="geometry" />
        </mxCell>
        <mxCell id="iJqr4c1U61J0EImueqmd-214" value="" style="rounded=0;whiteSpace=wrap;html=1;fillColor=#e3c800;strokeColor=#B09500;fontColor=#000000;" parent="1" vertex="1">
          <mxGeometry x="885" y="1403" width="340" height="20" as="geometry" />
        </mxCell>
        <mxCell id="iJqr4c1U61J0EImueqmd-215" value="" style="rounded=0;whiteSpace=wrap;html=1;fillColor=#e51400;strokeColor=#B20000;fontColor=#ffffff;" parent="1" vertex="1">
          <mxGeometry x="885" y="1443" width="340" height="20" as="geometry" />
        </mxCell>
        <mxCell id="iJqr4c1U61J0EImueqmd-216" value="" style="rounded=0;whiteSpace=wrap;html=1;fillColor=#76608a;strokeColor=#432D57;fontColor=#ffffff;" parent="1" vertex="1">
          <mxGeometry x="885" y="1483" width="340" height="20" as="geometry" />
        </mxCell>
        <mxCell id="iJqr4c1U61J0EImueqmd-217" value="" style="rounded=0;whiteSpace=wrap;html=1;fillColor=#a0522d;strokeColor=#6D1F00;fontColor=#ffffff;" parent="1" vertex="1">
          <mxGeometry x="885" y="1523" width="340" height="20" as="geometry" />
        </mxCell>
        <mxCell id="iJqr4c1U61J0EImueqmd-222" value="변수" style="text;html=1;align=center;verticalAlign=middle;resizable=0;points=[];autosize=1;strokeColor=none;fillColor=none;" parent="1" vertex="1">
          <mxGeometry x="1225" y="1358" width="50" height="30" as="geometry" />
        </mxCell>
        <mxCell id="iJqr4c1U61J0EImueqmd-223" value="LED" style="text;html=1;align=center;verticalAlign=middle;resizable=0;points=[];autosize=1;strokeColor=none;fillColor=none;" parent="1" vertex="1">
          <mxGeometry x="1225" y="1398" width="50" height="30" as="geometry" />
        </mxCell>
        <mxCell id="iJqr4c1U61J0EImueqmd-224" value="무게센서" style="text;html=1;align=center;verticalAlign=middle;resizable=0;points=[];autosize=1;strokeColor=none;fillColor=none;" parent="1" vertex="1">
          <mxGeometry x="1215" y="1443" width="70" height="30" as="geometry" />
        </mxCell>
        <mxCell id="iJqr4c1U61J0EImueqmd-225" value="WIFE&amp;nbsp; 센서" style="text;html=1;align=center;verticalAlign=middle;resizable=0;points=[];autosize=1;strokeColor=none;fillColor=none;" parent="1" vertex="1">
          <mxGeometry x="1225" y="1478" width="80" height="30" as="geometry" />
        </mxCell>
        <mxCell id="iJqr4c1U61J0EImueqmd-227" value="기다리기" style="text;html=1;align=center;verticalAlign=middle;resizable=0;points=[];autosize=1;strokeColor=none;fillColor=none;" parent="1" vertex="1">
          <mxGeometry x="1230" y="1518" width="70" height="30" as="geometry" />
        </mxCell>
        <mxCell id="iJqr4c1U61J0EImueqmd-228" value="" style="rounded=0;whiteSpace=wrap;html=1;fillColor=#f5f5f5;fontColor=#333333;strokeColor=#666666;" parent="1" vertex="1">
          <mxGeometry x="885" y="1567.56" width="340" height="20" as="geometry" />
        </mxCell>
        <mxCell id="iJqr4c1U61J0EImueqmd-231" value="조건문" style="text;html=1;align=center;verticalAlign=middle;resizable=0;points=[];autosize=1;strokeColor=none;fillColor=none;" parent="1" vertex="1">
          <mxGeometry x="1235" y="1557.56" width="60" height="30" as="geometry" />
        </mxCell>
        <mxCell id="iJqr4c1U61J0EImueqmd-232" value="idea)&lt;br&gt;버튼을 누를떄&amp;nbsp; 버튼을 눌렀는지 확인하기 위해 부저음 내기&lt;div&gt;&lt;br/&gt;&lt;/div&gt;" style="text;html=1;align=center;verticalAlign=middle;resizable=0;points=[];autosize=1;strokeColor=none;fillColor=none;" parent="1" vertex="1">
          <mxGeometry x="950" y="1587.56" width="320" height="60" as="geometry" />
        </mxCell>
        <mxCell id="neUhBCbhYMwncV7E5mz9-6" style="edgeStyle=orthogonalEdgeStyle;rounded=0;orthogonalLoop=1;jettySize=auto;html=1;entryX=0.5;entryY=0;entryDx=0;entryDy=0;" edge="1" parent="1" source="neUhBCbhYMwncV7E5mz9-3" target="iJqr4c1U61J0EImueqmd-84">
          <mxGeometry relative="1" as="geometry">
            <mxPoint x="500" y="10" as="targetPoint" />
            <Array as="points">
              <mxPoint x="741" y="1150" />
              <mxPoint x="741" y="10" />
              <mxPoint x="450" y="10" />
            </Array>
          </mxGeometry>
        </mxCell>
        <mxCell id="neUhBCbhYMwncV7E5mz9-3" value="약이 고갈되었습니다.&lt;br&gt;&lt;div&gt;(LED) 출력&lt;/div&gt;" style="rounded=1;whiteSpace=wrap;html=1;fillColor=#e3c800;fontColor=#000000;strokeColor=#B09500;" vertex="1" parent="1">
          <mxGeometry x="1190" y="1125" width="120" height="60" as="geometry" />
        </mxCell>
        <mxCell id="neUhBCbhYMwncV7E5mz9-7" value="" style="shape=flexArrow;endArrow=classic;html=1;rounded=0;fillColor=#fad9d5;strokeColor=#ae4132;endWidth=37.64705882352941;endSize=4.223529411764706;" edge="1" parent="1">
          <mxGeometry width="50" height="50" relative="1" as="geometry">
            <mxPoint x="330" y="340" as="sourcePoint" />
            <mxPoint x="380" y="290" as="targetPoint" />
            <Array as="points">
              <mxPoint x="340" y="320" />
              <mxPoint x="370" y="335.5" />
              <mxPoint x="350" y="300" />
            </Array>
          </mxGeometry>
        </mxCell>
        <mxCell id="neUhBCbhYMwncV7E5mz9-8" value="" style="verticalLabelPosition=bottom;verticalAlign=top;html=1;shape=mxgraph.flowchart.or;dashed=1;fillColor=none;container=1;" vertex="1" parent="1">
          <mxGeometry x="1320" y="690" width="70" height="70" as="geometry" />
        </mxCell>
        <mxCell id="neUhBCbhYMwncV7E5mz9-9" value="" style="verticalLabelPosition=bottom;verticalAlign=top;html=1;shape=mxgraph.flowchart.or;dashed=1;fillColor=none;rotation=130;" vertex="1" parent="1">
          <mxGeometry x="1320" y="690" width="70" height="70" as="geometry" />
        </mxCell>
        <mxCell id="neUhBCbhYMwncV7E5mz9-14" value="" style="edgeStyle=orthogonalEdgeStyle;rounded=0;orthogonalLoop=1;jettySize=auto;html=1;" edge="1" parent="1" source="neUhBCbhYMwncV7E5mz9-12" target="iJqr4c1U61J0EImueqmd-144">
          <mxGeometry relative="1" as="geometry" />
        </mxCell>
        <mxCell id="neUhBCbhYMwncV7E5mz9-12" value="&lt;div&gt;(LCD) 변수 표시&lt;/div&gt;" style="rounded=1;whiteSpace=wrap;html=1;fillColor=#e3c800;fontColor=#000000;strokeColor=#B09500;" vertex="1" parent="1">
          <mxGeometry x="391.15999999999997" y="1022.56" width="120" height="60" as="geometry" />
        </mxCell>
        <mxCell id="neUhBCbhYMwncV7E5mz9-19" value="" style="edgeStyle=orthogonalEdgeStyle;rounded=0;orthogonalLoop=1;jettySize=auto;html=1;" edge="1" parent="1" source="neUhBCbhYMwncV7E5mz9-17" target="iJqr4c1U61J0EImueqmd-131">
          <mxGeometry relative="1" as="geometry" />
        </mxCell>
        <mxCell id="neUhBCbhYMwncV7E5mz9-17" value="(LED) RESET 출력" style="rounded=1;whiteSpace=wrap;html=1;fillColor=#e3c800;fontColor=#000000;strokeColor=#B09500;" vertex="1" parent="1">
          <mxGeometry x="390.14" y="330" width="120" height="60" as="geometry" />
        </mxCell>
        <mxCell id="neUhBCbhYMwncV7E5mz9-22" value="" style="edgeStyle=orthogonalEdgeStyle;rounded=0;orthogonalLoop=1;jettySize=auto;html=1;" edge="1" parent="1" source="neUhBCbhYMwncV7E5mz9-20" target="iJqr4c1U61J0EImueqmd-143">
          <mxGeometry relative="1" as="geometry" />
        </mxCell>
        <mxCell id="neUhBCbhYMwncV7E5mz9-20" value="기다리기" style="rounded=1;whiteSpace=wrap;html=1;fillColor=#a0522d;fontColor=#ffffff;strokeColor=#6D1F00;" vertex="1" parent="1">
          <mxGeometry x="390.88" y="720" width="120" height="60" as="geometry" />
        </mxCell>
        <mxCell id="neUhBCbhYMwncV7E5mz9-25" value="약 배출하기" style="rounded=1;whiteSpace=wrap;html=1;" vertex="1" parent="1">
          <mxGeometry x="1190" y="620.44" width="120" height="60" as="geometry" />
        </mxCell>
      </root>
    </mxGraphModel>
  </diagram>
</mxfile>
